<svg width="55" height="48" fill="none" xmlns="http://www.w3.org/2000/svg"><path d="M3.6 44.2h18.3c1 2 2.9 3.2 5 3.2h1.2c2.2 0 4.2-1.3 5.1-3.2h18.4c1.9 0 3.4-1.6 3.4-3.4v-33c0-1.8-1.5-3.3-3.4-3.3h-1.9V2.9c0-1.2-1-2.3-2.3-2.3H7.7C6.4.6 5.4 1.6 5.4 3v1.6H3.6A3.4 3.4 0 000 7.9v32.9c0 1.8 1.6 3.4 3.5 3.4zm43.8-7H28.7V10.5c4.3.5 7.7 4.2 7.7 8.7v1h-.3l-.8.1c-.3.2-.5.5-.5.8l-1.9 8.2c0 .7.3 1.3 1 1.4l3.8.9h.7a3 3 0 002.8-2.3l1-4.8a3 3 0 00-2.2-3.4l-1.3-.3v-1.6c0-5.7-4.4-10.5-10-11V2.9h18.7v34.2zM36.7 22.7l2.9.6c.3 0 .5.4.4.7L39 29c0 .4-.5.6-.8.5l-2.8-.6 1.3-6zM7.7 2.9h18.7v5.4c-5.6.5-10 5.3-10 11v1.5l-1.3.4a3 3 0 00-2.2 3.4l1 4.8a3 3 0 003.5 2.3l4-.9c.5-.1 1-.7.8-1.4l-1.8-8.2a1.1 1.1 0 00-1.4-1l-.3.1v-1c0-4.5 3.4-8.2 7.7-8.7V37H7.7V3zm10.7 19.9l1.3 6-2.8.6a.6.6 0 01-.8-.5l-1-4.8v-.4c.2-.2.3-.3.5-.3l2.8-.6zm-16-15c0-.5.5-1 1.2-1h1.8V37c0 1.3 1 2.3 2.3 2.3h39.7c1.3 0 2.3-1 2.3-2.3V6.8h1.9c.6 0 1.1.5 1.1 1v33c0 .6-.5 1-1.1 1H32.4c-.5 0-1 .4-1 .9a3.3 3.3 0 01-3.3 2.4H27c-1.5 0-2.8-1-3.2-2.4-.2-.5-.6-.8-1.1-.8H3.6c-.7 0-1.2-.5-1.2-1.1v-33z" fill="#FF6B09"/></svg>