<svg width="49" height="48" fill="none" xmlns="http://www.w3.org/2000/svg"><path d="M3 18.8v4.3c0 .2 0 .4.3.6a16.6 16.6 0 0013.5 3.2 18 18 0 0014.7 0c4.6 1 9.6 0 13.6-3.2l.3-.6v-4.3c0-.6-.4-1.2-1-1.5L38.8 14c1.3-1.6 2.2-3.9 2.4-5.8A6.3 6.3 0 0030.4 3l-.1.1-.1.2A6.6 6.6 0 0023.4 0l-.6.1h-.1c-2 .4-3.5 1.6-4.5 3.3a6.3 6.3 0 00-4.8-2.2C7.6 1.2 5 8.2 9.7 14l-5.9 3.2c-.5.3-.8 1-.8 1.5zm28.5 6.4l-.4.2a16.5 16.5 0 01-17-1.8v-4.3c0-.2.1-.3.2-.3l6.8-3.8c.9.7 2 1.2 3 1.2a5 5 0 003.2-1.2l6.7 3.7.2.4v4.3c-.9.6-1.8 1.2-2.7 1.6zm12.2-6.6l.2.2v4a15 15 0 01-10.1 2.9l1.6-1.2c.2 0 .3-.3.3-.5v-4.7a2 2 0 00-1-1.6l-3.5-2 .9-.5c1 .8 2 1 2.7 1 1 0 2-.4 2.8-1l6.1 3.4zm-8.9-16c2.1 0 4 1.4 4.6 3.3A5.5 5.5 0 0136 4.2a.7.7 0 00-1.2.1A5.5 5.5 0 0131 7V6l-.2-1a4.9 4.9 0 014-2.2zm-4 5.9a7 7 0 004.8-2.7 7 7 0 004 1.6c0 2.7-2.2 7.4-4.8 7.4-2 0-3.7-2.9-4.3-4.9l.3-1.4zM31 14l-1.3.7-1.4-.8 1.4-2c.3.7.8 1.4 1.3 2zm-2-4.4c-.7 2.1-2.6 5.2-4.8 5.2-2.6 0-4.9-4.3-5.3-7 .1 0 3.7.2 6-3 1.3 1 3 1.7 4.6 1.8 0 1-.2 2-.5 3zm-4.8-8.2c4.2 0 5 3.6 5 3.7a6.2 6.2 0 01-3.8-2 .7.7 0 00-1.2.2 6.1 6.1 0 01-5.3 3c.2-2.7 2.3-5 5.3-5zm-5.5 10.4c.4.8.8 1.5 1.4 2.2l-1.4.7-1.3-.8 1.3-2zm-5.2-9.2c1.7 0 3.2.8 4.1 2.3l-.2.8c-1-.3-2-.8-2.7-1.6a.7.7 0 00-1.2.1A5.6 5.6 0 018.7 7a4.8 4.8 0 014.8-4.3zM8.8 8.5a7 7 0 005.5-2.7 7 7 0 003 1.5c.1.8.3 1.9.6 2.6-.4 1.3-1.2 2.8-2.2 3.8-.6.7-1.5 1.1-2.2 1.1-2.4 0-4.2-3.8-4.7-6.3zM4.5 18.8v-.2l6.3-3.4.5.4c.7.4 1.4.7 2.3.7 1 0 1.8-.4 2.6-1l.1-.2 1 .5-3.7 2c-.6.4-1 1-1 1.7V24c0 .2.2.4.4.5.4.4 1 .9 1.6 1.2a15 15 0 01-10.1-3v-3.9z" fill="#FF6B09"/><path d="M46.9 31.2a3 3 0 00-3-.2l-9.2 4.4c0-1.7-1.4-3-3.2-3h-5.2c-2.6-2.3-6-3.7-9-3.8h-6.8V27H0v17.3h10.5v-2A43 43 0 0024.7 48c6.3-.4 21.1-10.8 22.1-11.5a3.1 3.1 0 000-5.3zm-38 11.6H1.6V28.5H9v14.3zM46 35.2c-.2.2-15.5 11-21.4 11.3h-.2c-3.1 0-10.8-4.1-14-6V30l7 .1c2.7 0 5.7 1.4 8 3.5l.3.2h5.8a1.7 1.7 0 010 3.4H20.8v1.5h10.7c1 0 2-.5 2.5-1.3l10.5-5c.5-.3 1.1-.3 1.6 0s.8.8.8 1.4c0 .6-.4 1.1-.9 1.4zM25 18.2h-1.6v1.4H25v-1.4zM25 21h-1.6v1.4H25V21zM25 23.7h-1.6v1.4H25v-1.4z" fill="#FF6B09"/></svg>