<svg width="406" height="472" fill="none" xmlns="http://www.w3.org/2000/svg"><path d="M423.8 322c-5.5-12.3-13-24.5-24.2-38.5-28-35.2-36.5-113.6-36.6-114.4-.4-3.8-3-6.9-6.5-8a9.6 9.6 0 00-10 2.7c-33.4 37.4-19.4 95-11.8 118.1a206 206 0 016 21.3c12.3 60.9-11.5 88.4-17.1 94-5.4 1.5-9.1.7-12.5-3-11.8-12.8-15.7-55-10.2-110.1 1.2-11.2.9-21.3-.7-30.7-11.6-67.6-54.1-111-65-126.3-29.7-44-32.8-117.3-32.8-118-.1-3.4-2.1-6.5-5.3-8a9.5 9.5 0 00-9.5.6C137.9 35.5 142.2 117 149 162.3c1.6 10.6 4.7 21.3 10.1 34.8 19.3 48.5-3.8 111-4 111.6l-.4 1.6c-3 15.5-7.9 24.7-13.4 24.7l-1.8-.3c-6.7-1.4-10.2-8.6-10.3-14.8-.4-80.2-80.9-107.2-81.7-107.5a9.4 9.4 0 00-10 2.8c-2.6 3-3.1 7-1.4 10.4 1 2 4 10.6 1.9 41.2a351.7 351.7 0 01-14.9 80.7A393.7 393.7 0 007.2 472C22 632.2 252.3 660.3 389 570c15-9.9 27.2-21.1 36.2-33.6 50.4-69.6 20.8-164.1-1.3-214.4zM73.5 475a9.4 9.4 0 01-8.9 10h-.5c-5 0-9.2-3.9-9.5-8.9-.9-13.7-.7-28.1.4-43.7.3-5.2 4.9-9 10.1-8.8 5.2.4 9.2 5 8.8 10a304 304 0 00-.4 41.5zm4.7-83.3a9.4 9.4 0 01-9.4 8.3h-1.2a9.5 9.5 0 01-8.3-10.5L64 353c.6-5 5.3-8.7 10.6-8.1 5.2.6 8.9 5.3 8.2 10.5l-4.5 36.2zM359.7 128.7a9.4 9.4 0 01-8-10.7c.6-3.8 4-23.4 13.4-33.2 3.5-3.8 9.5-4 13.3-.5 3.9 3.6 4 9.5.5 13.3-4 4.2-7.3 16.1-8.4 23.3-.8 5-5.6 8.6-10.8 7.8zM14 175.6c-1.7-7-6.2-18.5-10.6-22.3a9.4 9.4 0 01-.8-13.3c3.4-3.9 9.4-4.3 13.3-.9 10.2 9 15.6 28 16.6 31.8a9.5 9.5 0 01-18.4 4.7z" fill="#3D3D3D"/></svg>