<svg width="46" height="48" fill="none" xmlns="http://www.w3.org/2000/svg"><path d="M45.2 7.4v-.1L37.8.1h-.1V0H5.9c-.3 0-.5.2-.5.4v44.1l.1.1L8.9 48c.2.2.4.2.6 0l3-3 3 3a.4.4 0 00.5 0l3-3 2.9 3c.2.2.4.2.6 0l3-3 2.9 3c.2.2.4.2.6 0l3-3 2.9 3a.4.4 0 00.6 0l3-3 2.9 3c.2.2.4.2.6 0l3.2-3.2v-.1h.1v-.1V7.5v-.2zm-7.2-6l5.8 5.8H38V1.4zm6.4 42.8L41.6 47l-3-3a.4.4 0 00-.6 0l-3 3-2.9-3a.4.4 0 00-.6 0l-2.9 3-3-3a.4.4 0 00-.6 0l-2.9 3-3-3a.4.4 0 00-.5 0l-3 3-3-3a.4.4 0 00-.5 0l-3 3-2.8-2.8V.8h30.9v6.8c0 .2.2.4.4.4h6.8v36.2z" fill="#FF6B09"/><path d="M9.5 4.9h14a.4.4 0 000-.9h-14a.4.4 0 100 .9zM9.5 7.5h22.3a.4.4 0 000-.9H9.5a.4.4 0 100 .9zM9 9.9v13.7c0 .3.2.5.5.5h31.7c.3 0 .5-.2.5-.5V10c0-.3-.2-.5-.5-.5H9.5c-.3 0-.5.2-.5.5zm9.5.4h22.3v3.6H18.5v-3.6zm0 4.5h22.3v3.7H18.5v-3.7zm0 4.5h22.3v4H18.5v-4zm-8.6-9h7.7v3.6H10v-3.6zm0 4.5h7.7v3.7H10v-3.7zm0 4.5h7.7v4H10v-4zM41.2 26H9.5c-.3 0-.5.2-.5.4v13.8a.4.4 0 10.9 0V36h7.7v4.3a.4.4 0 00.9 0V36h22.3v4.3a.4.4 0 00.9 0V26.4c0-.2-.2-.4-.5-.4zm-23.6 9H10v-3.6h7.7V35zm0-4.5H10v-3.7h7.7v3.7zM40.8 35H18.5v-3.6h22.3V35zm0-4.5H18.5v-3.7h22.3v3.7zM3.4 0c-.2 0-.4.2-.4.4v44a.4.4 0 00.8 0V.4c0-.2-.1-.4-.4-.4zM1 0C.9 0 .8.2.8.4v44a.4.4 0 00.8 0V.4c0-.2-.2-.4-.4-.4z" fill="#FF6B09"/></svg>