<svg width="48" height="47" fill="none" xmlns="http://www.w3.org/2000/svg"><path d="M44.3-.2H21.2a2.7 2.7 0 00-2.7 2.7v9.6L1.3 19.3a.6.6 0 000 1l2.1 1.3v14c-1.1.3-2 1.3-2 2.5v1.3c0 .3.3.6.6.6h4c.2 0 .5-.3.5-.6v-1.3c0-1.2-.9-2.2-2-2.5V22.3l1.8 1v6.5c0 2.4 6 3.7 12.2 3.8v10.9c0 .5.1 1 .4 1.5.5.7 1.4 1.2 2.3 1.2h23.1c1.5 0 2.7-1.2 2.7-2.7v-42c0-1.4-1.2-2.7-2.7-2.7zm-39 38.3v.8H2.7V38a1.4 1.4 0 112.8 0zm39 8H21.2a1.6 1.6 0 01-1.6-1.6v-3.8h26.3v3.8c0 .8-.7 1.6-1.6 1.6zm1.6-6.5H19.6v-6c3 0 12.2-.7 12.2-3.8v-6.5l5-3a.6.6 0 000-1l-17.2-7.2V7.4h26.3v32.2zM19 26c-3 0-9 .4-11.7 2.1 0-5.2-.1-4.8.5-5.3 1.6-1.1 6.2-2 11.2-2 2.2 0 11.7.6 11.7 2.6v4.7a26.8 26.8 0 00-11.7-2zm.6-23.6c0-.8.7-1.6 1.6-1.6h23.1c1 0 1.6.8 1.6 1.6v3.8H19.6V2.5zM19 13.1l16.3 6.8-4 2.4c-2.2-2-9.3-2.5-12.3-2.5s-10 .4-12.2 2.5l-4-2.4L19 13.1zM7.3 29.8c0-.9 4-2.5 11.7-2.5 7.7 0 11.7 1.6 11.7 2.5 0 1-4 2.6-11.7 2.6-7.6 0-11.7-1.6-11.7-2.6z" fill="#FF6B09"/><path d="M32.8 41.5a1.9 1.9 0 100 3.7 1.9 1.9 0 000-3.7zm0 2.6a.7.7 0 110-1.5.7.7 0 010 1.5zM34.9 3h-4.3v1.2H35V3z" fill="#FF6B09"/></svg>