<svg width="66" height="48" fill="none" xmlns="http://www.w3.org/2000/svg"><path d="M29.4 7H8.9v1.4h20.5V7zM29.4 12.6H12v1.6h17.4v-1.6zM29.4 18.3H8.9V20h20.5v-1.6zM29.4 24H12v1.6h17.4V24zM29.4 29.8H8.9v1.5h20.5v-1.5zM29.4 35.5H12V37h17.4v-1.5zM57.5 7H37v1.4h20.5V7zM54.4 12.6H37v1.6h17.4v-1.6zM57.5 18.3H37V20h20.5v-1.6zM54.4 24H37v1.6h17.4V24zM57.5 29.8H37v1.5h20.5v-1.5zM54.4 35.5H37V37h17.4v-1.5z" fill="#fff"/><path d="M64.9 5.2H62V.9c0-.4-.4-.7-.8-.7H38.4a6 6 0 00-5.2 3 6 6 0 00-5.2-3H5.1c-.4 0-.7.3-.7.7v4.3H1.6c-.5 0-.8.3-.8.7v41.2c0 .4.3.7.8.7h63.3c.4 0 .7-.3.7-.7V5.9c0-.4-.3-.7-.7-.7zM38.4 1.7h22.1v41H36.8c-1 0-2.1.5-2.8 1V6.2c0-2.4 2-4.4 4.4-4.4zm-32.5 0H28c2.4 0 4.4 1.9 4.4 4.3V43.8c-.6-.6-1.7-1-2.7-1H5.9v-41zm-3.6 5h2v36.8c0 .4.4.8.8.8h24.6c1.1 0 2.3.7 2.6 2h-30V6.7zm61.8 39.6h-30c.4-1.3 1.5-2 2.7-2h24.5c.4 0 .8-.4.8-.8V6.7h2v39.6z" fill="#fff"/></svg>