<svg width="40" height="47" fill="none" xmlns="http://www.w3.org/2000/svg"><path d="M-.2 46.6H40c.2-4.5-.1-12.1-3-15.8l-6.2-3.2c.2-.4.2-.8.2-1.2l-.1-1a8.5 8.5 0 00-4.4-4.2c.4-.7.6-1.5.8-2.3a2 2 0 001.3-1.4l.8-3a2 2 0 00-.7-2c2-4.6-1.4-9-1.6-9.1A10 10 0 0018.6.2c-6.7 1.4-9.3 6.5-7.9 12.5a2 2 0 00-.4 1.8l.7 3a2 2 0 001.4 1.4c.2 1.4.8 2.8 1.7 3.8V25c-9.6 5-3.5 1.8-11.2 5.7 0 0-3.6 4-3 15.2v.7zm38.8-1.4H32v-2.8l4.4-10a29 29 0 012.2 12.8zm-9-18.9c-.3 3-1.9 2-2.9 4.3-.7-.8-1-1.9-.8-3 .4-2-.8-2.6-.5-4.7l.4-.5c2.6 1.2 3.9 3.3 3.8 4zm-14-2.3a7.4 7.4 0 008.3.1c.2 1.7.9 2 .6 3.3v.6l-4.6 5.1-5.7-6.5 1.4-.7V24zm-1.8-6.2V15v-5a6.3 6.3 0 012.8-2.7 40 40 0 019.3 7.1v3.8a6 6 0 01-12.1-.4zm-1 9.5l7.1 8 4.8-5.3c0 .3.2.6.4.8L20 37.3l-7.7-9.6.7-.4zm14.5-10.7v-2.2l.6-.6c0 1.1.1-.2-.6 2.8zm-8.5-15c.3 0 4.2-.6 7.2 2.7.2.2 2.6 3.4 1.6 6.9-.3-1.6-.9-3.6-1.8-4.5l-1 1c.9 1 1.5 3.8 1.7 5.3-4.2-4.5-9.7-7.3-9.8-7.4-.3.2-2.6.7-4.3 4v2.5H12c-1-5.2 1-9.3 6.7-10.5zm-6.9 12l.4 1.5v1.5l-.6-2.4c0-.4.2-.5.2-.6zm-1 14.7l9 11.4 6.2-7.7c.6.6 1 .7 2.4 1.4l-.5-1.6c-.1-.4.3-1 .6-1.4.7-.3 1.2-.8 1.6-1.5l5 2.6L30.6 42v3H9.3v-3L4.6 31.5l6.3-3.2zm-7.4 4.1l4.4 10v2.8H1.2c0-2.2 0-9.2 2.3-12.8z" fill="#FF6B09"/></svg>