<svg width="35" height="41" fill="none" xmlns="http://www.w3.org/2000/svg"><path d="M.7 17.7c0 .4-.7.4-.7 0a17.2 17.2 0 0134.4 0c0 .4-.7.4-.7 0 0-6.4-10.6-6.4-10.6 0 0 .4-.6.4-.6 0 0-6.4-10.6-6.4-10.6 0 0 .4-.7.4-.7 0 0-6.4-10.5-6.4-10.5 0zm10.6-2.5c.2-3.7.7-7 1.6-9.5.6-2 1.5-3.6 2.5-4.4C8 2 2.3 7.6.9 14.7c2.5-3.6 8.3-3.3 10.4.5zm11.1-.2c-.2-3.5-.7-6.7-1.6-9.1-2-6.3-5.2-6.3-7.3 0-.8 2.4-1.4 5.6-1.5 9.1 2.2-3.8 8.1-3.8 10.4 0zm11-.3A16.5 16.5 0 0019 1.3c1 .8 1.8 2.4 2.5 4.4.8 2.5 1.4 5.8 1.6 9.5 2-3.9 7.8-4 10.3-.5zM15 25.5V22c-.7.5-1.2 1.1-1.2 1.9 0 .8.5 1.3 1.1 1.6zm.6 1.1c-1.2-.5-2.5-1.2-2.5-2.7 0-1.6 1.2-2.4 2.5-3v5.7zM19.4 30.8v3.5c.7-.4 1.2-1 1.2-1.8s-.5-1.3-1.2-1.7zm-.6-1c1.2.5 2.4 1.1 2.4 2.7 0 1.5-1.2 2.3-2.4 3v-5.8z" fill="#FF6B09"/><path d="M19.4 18c2.8.7 5.7 2.8 5.7 5.9 0 2.7-4.5 2.6-4.5 0 0-.8-.5-1.4-1.2-1.9v5c2.6.8 5.7 2.3 5.7 5.5 0 3-2.9 5.1-5.7 5.8 0 3-4.5 3-4.5 0-1.6-.4-3-1.1-4-2.1s-1.6-2.3-1.6-3.7c0-2.6 4.5-2.6 4.5 0 0 .8.5 1.4 1.1 1.8v-5c-2.5-.8-5.6-2.3-5.6-5.4 0-3.1 2.8-5.2 5.6-5.8 0-3 4.5-3 4.5 0zm-3.8 0v.6C13 19.1 10 20.8 10 24c0 3 3.3 4.2 5.6 5v6.5c-1.3-.6-2.5-1.3-2.5-3s-3.1-1.7-3.1 0c0 1.3.5 2.4 1.4 3.3a7.8 7.8 0 004.2 2v.6c0 2 3.2 2 3.2 0v-.6c2.6-.5 5.6-2.2 5.6-5.2s-3.3-4.3-5.6-5v-6.6c1.2.6 2.4 1.4 2.4 3 0 1.7 3.2 1.8 3.2 0 0-3-3-4.7-5.6-5.3v-.5c0-2-3.2-2-3.2 0z" fill="#FF6B09"/></svg>