<svg width="42" height="42" fill="none" xmlns="http://www.w3.org/2000/svg"><path d="M38.7.3H18.5C17.2.3 16 1.4 16 2.7v8.4l-15 6.3a.5.5 0 000 .8L3 19.4v12.2c-1 .2-1.7 1-1.7 2.1V35c0 .3.2.5.4.5h3.5c.2 0 .5-.2.5-.5v-1.2c0-1-.8-2-1.8-2.1V20l1.6.9v5.6c0 2.1 5.2 3.2 10.6 3.3v9.5a2.4 2.4 0 002.4 2.4h20.2c1.3 0 2.3-1.1 2.3-2.4V2.7c0-1.3-1-2.4-2.3-2.4zm-34 33.4v.7H2.2v-.7a1.2 1.2 0 112.5 0zm34 7H18.5a1.4 1.4 0 01-1.4-1.4V36h23v3.3c0 .8-.7 1.4-1.4 1.4zM40 35H17v-5.2c2.6 0 10.7-.6 10.7-3.3V21l4.3-2.7a.5.5 0 000-.8L17 11V7h23v28zM16.6 23.3c-2.7 0-8 .3-10.2 1.8 0-4.5-.1-4.2.4-4.6 1.4-1 5.4-1.7 9.8-1.7 1.9 0 10.2.5 10.2 2.2v4.1a23.4 23.4 0 00-10.2-1.8zM17 2.7c0-.8.6-1.4 1.4-1.4h20.2c.7 0 1.4.7 1.4 1.4V6H17V2.7zm-.5 9.2l14.2 6-3.5 2c-1.9-1.8-8-2.1-10.7-2.1-2.6 0-8.8.3-10.7 2.2l-3.5-2.1 14.2-6zM6.4 26.5c0-.8 3.5-2.2 10.2-2.2 6.7 0 10.2 1.4 10.2 2.2 0 .8-3.5 2.3-10.2 2.3-6.7 0-10.2-1.5-10.2-2.3z" fill="#FF6B09"/></svg>