<svg width="34" height="40" fill="none" xmlns="http://www.w3.org/2000/svg"><path d="M-.1 39.2h33.5c.1-3.8-.2-10.2-2.5-13.2l-5.2-2.7.2-1c0-.2 0-.5-.2-.8-.8-2-2.6-3-3.6-3.5.3-.6.5-1.3.6-2 .6 0 1-.5 1.2-1.1l.6-2.5a1.6 1.6 0 00-.6-1.6c1.7-3.9-1.1-7.5-1.3-7.7-3-3.3-7-2.7-7.1-2.6C9.9 1.6 7.7 5.9 9 10.9c-.4.4-.6 1-.4 1.5l.6 2.5c.1.6.6 1 1.1 1.2.2 1.2.7 2.3 1.5 3.2v1.9l-9.4 4.7s-3 3.3-2.6 12.7v.6zM32.2 38h-5.5v-2.3l3.6-8.4c1.8 3 2 8.8 1.9 10.7zm-7.5-15.7c-.2 2.4-1.6 1.7-2.4 3.6-.7-.8-.9-1.6-.7-2.5.3-1.7-.7-2.2-.4-4l.3-.4c2.2 1 3.2 2.7 3.2 3.3zm-11.7-2a6.2 6.2 0 007 .1c0 1.4.6 1.7.4 2.7v.6l-3.8 4.2-4.8-5.4L13 22v-1.5zm-1.5-5.1v-2.4-4c.5-1.2 1.3-2 2.3-2.4 2.7 1.5 5.7 3.7 7.8 6v3a5 5 0 01-10.1-.2zm-.8 8l6 6.6 3.9-4.5c0 .3.2.5.3.7l-4.3 5.4-6.4-8 .5-.3zm12-9v-1.9l.5-.5c0 1 .2-.2-.4 2.4zm-7-12.5c.2 0 3.5-.5 6 2.2.1.1 2.2 2.8 1.3 5.7-.2-1.3-.7-3-1.5-3.7l-.9.8c.8.8 1.3 3.2 1.5 4.4-3.6-3.7-8.1-6-8.2-6-.2 0-2.2.4-3.6 3.2v2.1H10c-1-4.3.8-7.7 5.6-8.7zm-5.7 10l.3 1.2v1.3l-.5-2c-.1-.4.1-.5.2-.5zM9 23.9l7.6 9.5 5.1-6.4c.6.5.8.6 2 1.2l-.4-1.4c0-.3.3-.9.6-1.1.5-.3 1-.7 1.3-1.2l4.1 2-3.8 9V38H7.8v-2.6l-4-8.9L9.2 24zM3 27.3l3.6 8.4V38H1C1 36 1 30.4 3 27.3z" fill="#FF6B09"/></svg>