<svg width="22" height="30" fill="none" xmlns="http://www.w3.org/2000/svg"><path d="M20.5 15.6c-.2-.6-.6-1.2-1.1-1.9-1.4-1.7-1.8-5.5-1.8-5.5 0-.2-.1-.4-.3-.4l-.5.1c-1.6 1.8-1 4.6-.6 5.7l.3 1c.6 3-.5 4.3-.8 4.6-.3 0-.4 0-.6-.2-.6-.6-.8-2.6-.5-5.3v-1.5C14 9 11.9 7 11.4 6.2 10 4 9.8.4 9.8.3c0-.1 0-.3-.2-.3H9C6.7 1.7 7 5.6 7.3 7.8c0 .6.2 1 .4 1.7 1 2.4-.1 5.4-.1 5.4-.2.8-.4 1.3-.7 1.3h-.1c-.3-.1-.5-.4-.5-.7 0-4-4-5.2-4-5.2l-.4.1c-.2.1-.2.3-.1.5a17 17 0 01-.6 5.9c-1 3-.8 5.9-.8 6 .7 7.7 11.8 9.1 18.5 4.7.7-.4 1.3-1 1.7-1.6 2.4-3.3 1-8 0-10.3zM3.6 23c0 .2-.2.4-.4.4a.5.5 0 01-.5-.4v-2.1c0-.3.2-.4.5-.4.2 0 .4.2.4.5v2zm.2-4c0 .2-.2.3-.4.3a.5.5 0 01-.5-.5l.2-1.7c0-.3.3-.5.5-.4.3 0 .5.2.4.5l-.2 1.7z" fill="#FF6B09"/></svg>