<svg width="30" height="18" fill="none" xmlns="http://www.w3.org/2000/svg"><path d="M25.8 11.3l3 3c.4.4.7 1 1 1.5.4.8 0 1.6-.7 1.7h-4.3c-1.2 0-2-.4-2.8-1.2l-1.8-1.9-.7-.7c-.6-.4-1.2-.2-1.5.4-.3.6-.4 1.3-.5 2 0 1-.3 1.3-1.3 1.4-2.3 0-4.4-.3-6.3-1.4-1.7-1-3-2.3-4.2-4A53 53 0 01.2 2.4c-.4-.8-.1-1.2.7-1.2h4.3c.6 0 1 .3 1.2.9.8 1.9 1.7 3.7 2.9 5.4.3.4.6.9 1 1.2.6.3 1 .2 1.2-.4.2-.3.2-.7.3-1l-.1-4c-.1-.9-.6-1.4-1.4-1.5-.4-.1-.4-.3-.2-.5.4-.4.7-.7 1.4-.7h5c.7.2.9.5 1 1.3v5.5c0 .3.1 1.2.7 1.4.4.1.7-.2 1-.5a17 17 0 002.7-4.3l1-2c.1-.6.5-.8 1-.8h5.2c.8.2 1 .5.8 1.3-.4 1.2-1.1 2.2-1.9 3.3l-2.4 3.2c-.7 1-.7 1.5.2 2.4z" fill="#436EAB"/></svg>